<svg xmlns="http://www.w3.org/2000/svg" xmlns:xlink="http://www.w3.org/1999/xlink" width="600" height="400"><defs><linearGradient xlink:href="#a" id="j" x1="-1180" x2="-940" y1="1314.52" y2="1314.52" gradientTransform="matrix(1.39931 0 0 1.39931 1306.25 -919.427)" gradientUnits="userSpaceOnUse"/><linearGradient id="a"><stop offset="0" style="stop-color:#3580e4;stop-opacity:1"/><stop offset="1" style="stop-color:#8abfdd;stop-opacity:1"/></linearGradient><linearGradient id="b"><stop offset="0" stop-color="#fff"/><stop offset=".519" stop-color="#fff"/><stop offset=".734" stop-color="#cfcfcf"/><stop offset="1" stop-color="#dcdcdc"/></linearGradient><linearGradient id="c"><stop offset="0" stop-color="#ed686f"/><stop offset=".865" stop-color="#a51d2d"/><stop offset="1" stop-color="#e01b24"/></linearGradient><linearGradient id="d"><stop offset="0" stop-color="#ed686f"/><stop offset=".911" stop-color="#a51d2d"/><stop offset="1" stop-color="#e01b24"/></linearGradient><linearGradient xlink:href="#e" id="k" x1="85" x2="85" y1="107.162" y2="86" gradientTransform="matrix(-1.57511 0 0 1.57511 1217.875 47.174)" gradientUnits="userSpaceOnUse"/><linearGradient id="e"><stop offset="0" stop-color="#eef4fc" style="stop-color:#c5dcf7;stop-opacity:1"/><stop offset="1" stop-color="#fff"/></linearGradient><linearGradient xlink:href="#e" id="q" x1="85" x2="85" y1="110.304" y2="86.986" gradientTransform="matrix(-2.11585 0 0 2.11585 1459.5 -118.923)" gradientUnits="userSpaceOnUse"/><linearGradient xlink:href="#e" id="r" x1="85" x2="85" y1="107.162" y2="82.135" gradientTransform="matrix(1.54638 0 0 1.54638 655.034 -16.075)" gradientUnits="userSpaceOnUse"/><radialGradient xlink:href="#b" id="m" cx="79.091" cy="48.406" r="33.5" fx="79.091" fy="48.406" gradientTransform="matrix(.00476 1.62228 -1.43419 .00422 141.702 -82.047)" gradientUnits="userSpaceOnUse"/><radialGradient xlink:href="#c" id="n" cx="71.474" cy="54.102" r="12" fx="71.474" fy="54.102" gradientTransform="matrix(4.50607 0 0 4.76661 -259.306 -59.706)" gradientUnits="userSpaceOnUse"/><radialGradient xlink:href="#d" id="o" cx="40.152" cy="49.777" r="14.583" fx="40.152" fy="49.777" gradientTransform="matrix(.87016 4.27869 -2.56693 .52204 148.394 -163.306)" gradientUnits="userSpaceOnUse"/><radialGradient xlink:href="#d" id="p" cx="40.152" cy="49.777" r="14.583" fx="40.152" fy="49.777" gradientTransform="matrix(.87016 4.27869 -2.56693 .52204 148.394 -163.306)" gradientUnits="userSpaceOnUse"/><clipPath id="l" clipPathUnits="userSpaceOnUse"><path fill="#fff" stroke-width="2" d="M65 177c-18.502 0-33.5 14.998-33.5 33.5.008 7.371 4.131 15.807 11.388 23.526l12.617 13.171H75.02l12.137-13.245c6.636-7.059 11.33-16.117 11.344-23.452 0-18.502-14.998-33.5-33.5-33.5z" style="marker:none"/></clipPath></defs><g transform="translate(-635.793 9.437)"><circle cx="-177.024" cy="920" r="167.918" style="fill:url(#j);fill-opacity:1;stroke:none;stroke-width:3.66905;stroke-linecap:round;stroke-linejoin:round" transform="rotate(-90)"/><path d="M1066.665 147.981a31.51 31.51 0 0 1 28.6 18.378 23.6 23.6 0 0 1 10.777-2.627c12.428.017 22.72 9.654 23.547 22.055h.08c8.7 0 15.75 7.051 15.75 15.75s-7.051 15.751-15.75 15.751h-88.206a18.9 18.9 0 0 1-18.902-18.9 18.9 18.9 0 0 1 12.657-17.82 33 33 0 0 1-.056-1.082c0-17.398 14.103-31.502 31.502-31.502z" style="fill:url(#k);stroke-width:.577558"/><g clip-path="url(#l)" transform="matrix(3.5493 0 0 3.33678 734.141 -542.119)"><path fill="url(#f)" d="M73 21c-18.502 0-33.5 14.998-33.5 33.5.008 7.371 3.5 14.422 6.94 20.379L58 98h30l11.605-23.21c3.395-5.88 6.88-12.955 6.895-20.29C106.5 35.998 91.502 21 73 21" style="fill:url(#m);marker:none" transform="translate(-8 156)"/><path fill="url(#g)" d="M64 177s-18.332 12.132-18.332 30.989C45.668 222.56 61.842 254 61.842 254H67s1.333-31.44 1.333-46.011C68.333 189.132 64 177 64 177" style="fill:url(#n)"/><path fill="url(#h)" d="M71.983 21.106c-8.207.147-16.328 3.285-22.5 8.695-6.174 5.409-10.35 13.047-11.574 21.163-1.24 8.225.567 16.874 4.995 23.915L61.902 98h6.432L55.002 81.27c-4.3-5.395-8.472-11.07-10.596-17.634-2.123-6.564-2.166-13.8.003-20.348A32.82 32.82 0 0 1 54.925 28.13a32.82 32.82 0 0 1 17.058-7.025Z" style="fill:url(#o)" transform="translate(-8 156)"/><path fill="url(#i)" d="M73.003 21.303c-7.709-1.547-15.97-.154-22.746 3.835s-12.002 10.537-14.39 18.029a32.5 32.5 0 0 0-.757 16.805 32.5 32.5 0 0 0 7.794 14.907L54.11 98h13.383L54.16 74.356c-2.868-5.087-5.557-10.406-6.427-16.181s.036-11.771 2.374-17.123c4.173-9.55 12.836-17.022 22.895-19.748Z" style="fill:url(#p)" transform="matrix(-1 0 0 1 137.16 155.823)"/></g><path fill="#e5a50a" d="M271.06 256.221v19.397a9.7 9.7 0 0 0 9.725 9.726h26.326c5.388 0 8.594-4.457 9.725-9.726v-19.397z" style="marker:none" transform="matrix(1.13712 0 0 1.13712 630.59 26.38)"/><path fill="#e5a50a" d="M271.06 252.06v19.397a9.7 9.7 0 0 0 9.725 9.724h26.326c5.388 0 8.594-4.455 9.725-9.724V252.06z" style="marker:none" transform="matrix(1.13712 0 0 1.13712 630.59 26.38)"/><path fill="#f3af0b" d="M300.19 252.06v29.121h6.92c5.389 0 8.595-4.455 9.726-9.724V252.06z" style="marker:none" transform="matrix(1.13712 0 0 1.13712 630.59 26.38)"/><path d="M1051.058 24.012a37.11 37.11 0 0 0-36.947 35.12 27.77 27.77 0 0 0-23.457 27.495 27.776 27.776 0 0 0 27.837 27.836h72.327a21.484 21.484 0 0 0 21.532-21.53 21.485 21.485 0 0 0-21.532-21.533h-3.986a37.1 37.1 0 0 0 1.45-10.276 37.11 37.11 0 0 0-37.111-37.112z" style="font-variation-settings:normal;fill:url(#q);fill-opacity:1;stroke-width:.822282"/><path d="M803.486 82.893a30.93 30.93 0 0 0-28.08 18.043 23.2 23.2 0 0 0-10.58-2.58c-12.201.018-22.306 9.478-23.117 21.653h-.079c-8.54 0-15.463 6.923-15.463 15.463s6.923 15.464 15.463 15.464h86.597a18.557 18.557 0 0 0 18.557-18.556 18.56 18.56 0 0 0-12.426-17.494 33 33 0 0 0 .055-1.063c0-17.08-13.846-30.927-30.928-30.927z" style="fill:url(#r);fill-opacity:1;stroke-width:.999999"/></g></svg>