<?xml version="1.0" encoding="UTF-8" standalone="no"?>
<svg
   xmlns:dc="http://purl.org/dc/elements/1.1/"
   xmlns:cc="http://creativecommons.org/ns#"
   xmlns:rdf="http://www.w3.org/1999/02/22-rdf-syntax-ns#"
   xmlns:svg="http://www.w3.org/2000/svg"
   xmlns="http://www.w3.org/2000/svg"
   xmlns:sodipodi="http://sodipodi.sourceforge.net/DTD/sodipodi-0.dtd"
   xmlns:inkscape="http://www.inkscape.org/namespaces/inkscape"
   width="16"
   height="16"
   version="1.1"
   id="svg13"
   sodipodi:docname="folder-symbolic.svg"
   inkscape:version="0.92.4 5da689c313, 2019-01-14">
  <metadata
     id="metadata17">
    <rdf:RDF>
      <cc:Work
         rdf:about="">
        <dc:format>image/svg+xml</dc:format>
        <dc:type
           rdf:resource="http://purl.org/dc/dcmitype/StillImage" />
      </cc:Work>
    </rdf:RDF>
  </metadata>
  <sodipodi:namedview
     pagecolor="#ffffff"
     bordercolor="#666666"
     borderopacity="1"
     objecttolerance="10"
     gridtolerance="10"
     guidetolerance="10"
     inkscape:pageopacity="0"
     inkscape:pageshadow="2"
     inkscape:window-width="706"
     inkscape:window-height="480"
     id="namedview15"
     showgrid="false"
     inkscape:zoom="14.75"
     inkscape:cx="8"
     inkscape:cy="8"
     inkscape:window-x="0"
     inkscape:window-y="33"
     inkscape:window-maximized="0"
     inkscape:current-layer="svg13" />
  <defs
     id="defs3">
    <style
       id="current-color-scheme"
       type="text/css">.ColorScheme-Text { color:#d3dae3; } .ColorScheme-Highlight { color:#5294e2; }</style>
  </defs>
  <g
     class="ColorScheme-Text"
     transform="translate(0,1)"
     color="#d3dae3"
     fill="#5c616c"
     id="g11"
     style="fill:#303d41;fill-opacity:1">
    <path
       d="m3 0c-0.554 0-1 0.446-1 1-0.554 0-1 0.446-1 1v3h1v-3h1v-1h4v1h7v1h1v-1c0-0.554-0.446-1-1-1h-6c0-0.554-0.446-1-1-1z"
       style="paint-order:fill markers stroke;fill:#303d41;fill-opacity:1"
       id="path5" />
    <path
       d="m8 3-1 2h-6c-0.554 0-1 0.446-1 1v7c0 0.554 0.446 1 1 1h14c0.554 0 1-0.446 1-1v-9c0-0.5-0.5-1-1-1zm0.60742 1h6.3926v9h-14v-7h6.7324z"
       id="path7"
       style="fill:#303d41;fill-opacity:1" />
    <path
       d="m8.608 4-0.876 2h-6.732v7h14v-9z"
       opacity=".25"
       id="path9"
       style="fill:#303d41;fill-opacity:1" />
  </g>
</svg>
