<?xml version="1.0" encoding="UTF-8" standalone="no"?>
<svg
   width="16"
   version="1.1"
   style="enable-background:new"
   id="svg7384"
   height="16"
   xmlns="http://www.w3.org/2000/svg"
   xmlns:svg="http://www.w3.org/2000/svg"
   xmlns:rdf="http://www.w3.org/1999/02/22-rdf-syntax-ns#"
   xmlns:cc="http://creativecommons.org/ns#"
   xmlns:dc="http://purl.org/dc/elements/1.1/">
  <metadata
     id="metadata90">
    <rdf:RDF>
      <cc:Work
         rdf:about="">
        <dc:format>image/svg+xml</dc:format>
        <dc:type
           rdf:resource="http://purl.org/dc/dcmitype/StillImage" />
        <dc:title>Gnome Symbolic Icons</dc:title>
        <cc:license
           rdf:resource="http://creativecommons.org/licenses/by-sa/4.0/" />
      </cc:Work>
      <cc:License
         rdf:about="http://creativecommons.org/licenses/by-sa/4.0/">
        <cc:permits
           rdf:resource="http://creativecommons.org/ns#Reproduction" />
        <cc:permits
           rdf:resource="http://creativecommons.org/ns#Distribution" />
        <cc:requires
           rdf:resource="http://creativecommons.org/ns#Notice" />
        <cc:requires
           rdf:resource="http://creativecommons.org/ns#Attribution" />
        <cc:permits
           rdf:resource="http://creativecommons.org/ns#DerivativeWorks" />
        <cc:requires
           rdf:resource="http://creativecommons.org/ns#ShareAlike" />
      </cc:License>
    </rdf:RDF>
  </metadata>
  <title
     id="title8473">Gnome Symbolic Icons</title>
  <defs
     id="defs7386" />
  <g
     transform="translate(-12.005853,-888)"
     id="layer1" />
  <g
     transform="translate(-12.005853,-888)"
     id="layer7" />
  <g
     transform="translate(-12.005853,-888)"
     id="layer6" />
  <g
     transform="translate(-12.005853,-888)"
     id="layer5" />
  <g
     transform="translate(-12.005853,-888)"
     id="layer9" />
  <g
     transform="translate(-12.005853,-888)"
     id="layer2" />
  <g
     transform="translate(-12.005853,-888)"
     id="layer8" />
  <g
     transform="translate(-12.005853,-888)"
     id="layer3" />
  <g
     transform="translate(-12.005853,-888)"
     id="layer4" />
  <path
     id="rect855"
     style="fill:#ffffff;stroke-width:4.89898;stroke-linecap:round;stroke-linejoin:round;paint-order:stroke fill markers"
     d="m 4.2871095,3.5372849 c -0.1917144,0 -0.3823955,0.073802 -0.5292969,0.2207031 -0.2938029,0.2938029 -0.2938029,0.766744 0,1.0605469 L 6.9394532,8.0001756 3.7578126,11.181816 c -0.2938029,0.293803 -0.2938029,0.766745 0,1.060548 0.2938029,0.293802 0.766744,0.293802 1.0605469,0 L 8.0000001,9.0607225 11.181641,12.242364 c 0.293802,0.293802 0.766744,0.293802 1.060547,0 0.293802,-0.293803 0.293802,-0.766745 0,-1.060548 L 9.060547,8.0001756 12.242188,4.8185349 c 0.293802,-0.2938029 0.293802,-0.766744 0,-1.0605469 -0.293803,-0.2938029 -0.766745,-0.2938029 -1.060547,0 L 8.0000001,6.9396286 4.8183595,3.757988 C 4.671458,3.6110866 4.4788238,3.5372849 4.2871095,3.5372849 Z" />
</svg>
