<?xml version="1.0" encoding="UTF-8" standalone="no"?>
<svg
   xmlns:dc="http://purl.org/dc/elements/1.1/"
   xmlns:cc="http://creativecommons.org/ns#"
   xmlns:rdf="http://www.w3.org/1999/02/22-rdf-syntax-ns#"
   xmlns:svg="http://www.w3.org/2000/svg"
   xmlns="http://www.w3.org/2000/svg"
   xmlns:sodipodi="http://sodipodi.sourceforge.net/DTD/sodipodi-0.dtd"
   xmlns:inkscape="http://www.inkscape.org/namespaces/inkscape"
   width="22"
   height="22"
   version="1.1"
   id="svg11"
   sodipodi:docname="window-close-hover-symbolic.svg"
   inkscape:version="0.92.4 5da689c313, 2019-01-14"
   style="enable-background:new">
  <metadata
     id="metadata15">
    <rdf:RDF>
      <cc:Work
         rdf:about="">
        <dc:format>image/svg+xml</dc:format>
        <dc:type
           rdf:resource="http://purl.org/dc/dcmitype/StillImage" />
        <dc:title>Gnome Symbolic Icons</dc:title>
      </cc:Work>
    </rdf:RDF>
  </metadata>
  <sodipodi:namedview
     pagecolor="#ffffff"
     bordercolor="#666666"
     borderopacity="1"
     objecttolerance="10"
     gridtolerance="10"
     guidetolerance="10"
     inkscape:pageopacity="0"
     inkscape:pageshadow="2"
     inkscape:window-width="1366"
     inkscape:window-height="707"
     id="namedview13"
     showgrid="false"
     inkscape:zoom="9.6400639"
     inkscape:cx="1.9564432"
     inkscape:cy="7.2382256"
     inkscape:window-x="0"
     inkscape:window-y="33"
     inkscape:window-maximized="1"
     inkscape:current-layer="svg11" />
  <title
     id="title2">Gnome Symbolic Icons</title>
  <defs
     id="defs7">
    <linearGradient
       id="ch"
       x1="19"
       x2="19"
       y1="-622.28998"
       y2="-632.98999"
       gradientTransform="translate(-11,635.64)"
       gradientUnits="userSpaceOnUse">
      <stop
         stop-color="#5c616c"
         offset="0"
         id="stop4" />
    </linearGradient>
  </defs>
  <circle
     style="opacity:1;fill:#1b2224;fill-opacity:1;stroke:none;stroke-width:2.41991186;stroke-linecap:round;stroke-linejoin:round;stroke-miterlimit:4;stroke-dasharray:none;stroke-opacity:1;paint-order:stroke fill markers"
     id="path819"
     cx="11"
     cy="11"
     r="8" />
  <g
     transform="matrix(1.375,0,0,1.375,-1881,-339.625)"
     style="display:inline"
     id="g4092-0-2-3-2">
    <path
       id="path4068-7-5-8-3"
       transform="matrix(0.72727273,0,0,0.72727273,1238.5455,113.90909)"
       d="m 189,184 c -5.52283,3e-5 -10,4.47716 -10,10 0,5.52284 4.47717,9.99997 10,10 5.52283,-3e-5 10,-4.47716 10,-10 0,-5.52284 -4.47717,-9.99997 -10,-10 z m -3.99609,6 h 1 c 0.0138,-1.2e-4 0.0197,-4.7e-4 0.0293,0 0.25479,0.011 0.50985,0.12844 0.6875,0.3125 l 2.28125,2.28125 2.31055,-2.28125 C 191.57787,190.08201 191.7591,190.007 192,190 h 1 v 1 c 0,0.28647 -0.0345,0.55067 -0.25,0.75 l -2.2793,2.28125 2.24805,2.25 C 192.90685,196.46941 193,196.73471 193,197 v 1 h -1 c -0.26524,-1e-5 -0.53051,-0.0931 -0.71875,-0.28125 l -2.2793,-2.28125 -2.28125,2.28125 C 186.53274,197.90693 186.26719,198 186.00195,198 h -0.99804 v -1 c 0,-0.26528 0.0921,-0.5306 0.28125,-0.71875 l 2.27929,-2.25 -2.27929,-2.28125 c -0.21065,-0.19462 -0.30312,-0.46925 -0.28125,-0.75 z"
       style="fill:#f46067;fill-opacity:1;stroke:none;stroke-width:0;stroke-linecap:butt;stroke-linejoin:miter;stroke-miterlimit:4;stroke-dasharray:none;stroke-dashoffset:0;stroke-opacity:1"
       inkscape:connector-curvature="0" />
  </g>
</svg>
