<svg width="484" height="276" version="1.1" xmlns="http://www.w3.org/2000/svg" xmlns:osb="http://www.openswatchbook.org/uri/2009/osb" xmlns:xlink="http://www.w3.org/1999/xlink">
 <defs>
  <linearGradient id="selected_fg_color" osb:paint="solid">
   <stop stop-color="#ffffffgit" offset="0"/>
  </linearGradient>
  <linearGradient id="linearGradient6565" x1="41" x2="41" y1="1032.4" y2="1050.4" gradientTransform="matrix(.83333 0 0 .83333 6.8801 173.56)" gradientUnits="userSpaceOnUse" xlink:href="#selected_fg_color"/>
  <linearGradient id="linearGradient6577" x1="66.303" x2="66.303" y1="126.56" y2="155.48" gradientUnits="userSpaceOnUse" xlink:href="#selected_fg_color"/>
  <linearGradient id="linearGradient6581" x1="25" x2="25" y1="31.362" y2="45.362" gradientUnits="userSpaceOnUse" xlink:href="#selected_fg_color"/>
  <linearGradient id="linearGradient6595" x1="41" x2="41" y1="1032.4" y2="1050.4" gradientTransform="matrix(.83333 0 0 .83333 6.7083 173.56)" gradientUnits="userSpaceOnUse" xlink:href="#selected_fg_color"/>
  <linearGradient id="linearGradient6597" x1="26" x2="26" y1="1031.4" y2="1051.4" gradientUnits="userSpaceOnUse" xlink:href="#selected_fg_color"/>
  <linearGradient id="linearGradient6601" x1="41" x2="41" y1="1032.4" y2="1050.4" gradientTransform="matrix(.83333 0 0 .83333 6.9191 173.56)" gradientUnits="userSpaceOnUse" xlink:href="#selected_fg_color"/>
  <linearGradient id="linearGradient6605" x1="484.2" x2="484.2" y1="188.95" y2="204.89" gradientUnits="userSpaceOnUse" xlink:href="#selected_fg_color"/>
  <linearGradient id="linearGradient6607" x1="-8.3622" x2="-8.3622" y1="139" y2="147" gradientUnits="userSpaceOnUse" xlink:href="#selected_fg_color"/>
  <linearGradient id="linearGradient6611" x1="124" x2="124" y1="6.3622" y2="10.362" gradientUnits="userSpaceOnUse" xlink:href="#selected_fg_color"/>
  <linearGradient id="linearGradient6615" x1="10.5" x2="10.5" y1="1033.4" y2="1035.4" gradientUnits="userSpaceOnUse" xlink:href="#selected_fg_color"/>
  <linearGradient id="linearGradient6617" x1="12" x2="12" y1="1027.4" y2="1035.4" gradientUnits="userSpaceOnUse" xlink:href="#selected_fg_color"/>
  <linearGradient id="linearGradient6619" x1="-737.8" x2="-737.8" y1="-725.95" y2="-717.95" gradientUnits="userSpaceOnUse" xlink:href="#selected_fg_color"/>
  <linearGradient id="linearGradient6627" x1="41" x2="41" y1="1032.4" y2="1050.4" gradientTransform="matrix(.83333 0 0 .83333 6.4583 173.56)" gradientUnits="userSpaceOnUse" xlink:href="#selected_fg_color"/>
  <linearGradient id="linearGradient6637" x1="41" x2="41" y1="1032.4" y2="1050.4" gradientTransform="matrix(.83333 0 0 .83333 6.9583 173.56)" gradientUnits="userSpaceOnUse" xlink:href="#selected_fg_color"/>
  <linearGradient id="linearGradient6659" x1="66.312" x2="66.312" y1="126.56" y2="155.48" gradientUnits="userSpaceOnUse" xlink:href="#selected_fg_color"/>
 </defs>
 <rect transform="scale(1,-1)" y="-138" width="121" height="138" rx="0" ry="0" color="#000000" fill="#f9fafb"/>
 <rect x="121" y="-1.4648e-5" width="121" height="138" fill="#1b1d24" stroke-width="0"/>
 <rect y="138" width="121" height="138" rx="0" ry="0" color="#000000" fill="#3498db"/>
 <g id="checkbox-checked" transform="translate(-14,56.64)">
  <g transform="translate(19)">
   <g transform="translate(0,-30)">
    <rect x="17" y="30.362" width="16" height="16" color="#000000" fill="none"/>
    <rect x="18" y="31.362" width="14" height="14" rx="2" ry="2" color="#000000" fill="#3498db" stroke-width="0"/>
   </g>
  </g>
  <g transform="translate(36,-1036)">
   <g transform="rotate(45,7.5,1026.4)">
    <g transform="translate(12.374,11.531)">
     <g transform="translate(-3,-5)">
      <rect x="8" y="1033.4" width="5" height="2" rx=".66666" ry=".66666" fill="url(#linearGradient6615)"/>
      <rect x="11" y="1027.4" width="2" height="8" ry="0" fill="url(#linearGradient6617)"/>
     </g>
     <rect transform="translate(0,1036.4)" x="5" y="-8" width="3" height="1" fill-opacity="0"/>
    </g>
   </g>
  </g>
 </g>
 <g id="checkbox-mixed" transform="translate(5,56.64)">
  <g transform="translate(19)">
   <g transform="translate(0,-30)">
    <rect x="17" y="30.362" width="16" height="16" color="#000000" fill="none"/>
    <rect x="18" y="31.362" width="14" height="14" rx="2" ry="2" color="#000000" fill="#3498db" stroke-width="0"/>
   </g>
  </g>
  <g transform="translate(36,-1036)">
   <g transform="rotate(45,7.5,1026.4)">
    <g transform="translate(12.374,11.531)">
     <g transform="translate(-3,-5)" fill="#3b3c3e">
      <rect transform="rotate(225)" x="-738.8" y="-725.95" width="2" height="8" ry="0" fill="url(#linearGradient6619)"/>
     </g>
     <rect transform="translate(0,1036.4)" x="5" y="-8" width="3" height="1" fill-opacity="0"/>
    </g>
   </g>
  </g>
 </g>
 <g id="radio-checked" transform="translate(-33,56.64)">
  <g transform="translate(19.004)">
   <g transform="matrix(.93617 0 0 .93566 -96.783 -244.76)">
    <rect x="206.99" y="261.98" width="17.091" height="17.1" color="#000000" fill="none"/>
    <g transform="matrix(.50892 0 0 .5174 181.79 197.56)">
     <rect x="51.611" y="126.56" width="29.385" height="28.919" rx="14.692" ry="14.46" color="#000000" fill="#3498db" stroke-width="0"/>
    </g>
   </g>
  </g>
  <rect x="122" y="6.3622" width="4" height="4" rx="1.9989" ry="2" color="#000000" fill="url(#linearGradient6611)"/>
 </g>
 <g id="radio-mixed" transform="translate(-33,56.64)">
  <g transform="translate(19)">
   <g transform="translate(19.004)">
    <g transform="matrix(.93617 0 0 .93566 -96.783 -244.76)">
     <rect x="206.99" y="261.98" width="17.091" height="17.1" color="#000000" fill="none"/>
     <g transform="matrix(.50892 0 0 .5174 181.79 197.56)">
      <rect x="51.611" y="126.56" width="29.385" height="28.919" rx="14.692" ry="14.46" color="#000000" fill="#3498db" stroke-width="0"/>
     </g>
    </g>
   </g>
  </g>
  <rect transform="rotate(-90)" x="-9.3622" y="139" width="2" height="8" ry="0" fill="url(#linearGradient6607)"/>
 </g>
 <g id="switch-active" transform="translate(-1002,-333)">
  <g transform="translate(885,450)">
   <g transform="translate(120,-117)">
    <g transform="translate(0,-1004.4)">
     <rect y="1029.4" width="52" height="24" opacity="0"/>
     <rect x="1" y="1031.4" width="50" height="20" rx="11" ry="11" fill="#3498db"/>
     <circle cx="41.125" cy="1041.4" r="7.5" fill="url(#linearGradient6637)"/>
    </g>
   </g>
  </g>
 </g>
 <g id="switch" transform="translate(-1002,-328)">
  <g transform="matrix(-1,0,0,1,1177,420)">
   <g transform="translate(120,-117)">
    <g transform="translate(0,-1004.4)">
     <rect y="1029.4" width="52" height="24" opacity="0"/>
     <rect x="1" y="1031.4" width="50" height="20" rx="11" ry="11" fill="#db5b5b"/>
     <circle cx="41.062" cy="1041.4" r="7.5" fill="#ffffff"/>
    </g>
   </g>
  </g>
 </g>
 <g id="switch-active-insensitive" transform="translate(-939,-333)" opacity=".55">
  <g transform="translate(885,450)" opacity="1">
   <g transform="translate(120,-117)">
    <g transform="translate(0,-1004.4)">
     <rect y="1029.4" width="52" height="24" opacity="0"/>
     <rect x="1" y="1031.4" width="50" height="20" rx="11" ry="11" fill="#3498db"/>
     <circle cx="40.625" cy="1041.4" r="7.5" fill="url(#linearGradient6627)"/>
    </g>
   </g>
  </g>
 </g>
 <g id="switch-insensitive" transform="translate(-939,-328)" opacity=".55">
  <g transform="matrix(-1,0,0,1,1177,420)">
   <g transform="translate(120,-117)">
    <g transform="translate(0,-1004.4)">
     <rect y="1029.4" width="52" height="24" opacity="0"/>
     <rect x="1" y="1031.4" width="50" height="20" rx="11" ry="11" fill="#db5b5b"/>
     <circle cx="40.688" cy="1041.4" r="7.5" fill="#ffffff"/>
    </g>
   </g>
  </g>
 </g>
 <g id="checkbox-unchecked" transform="translate(-14,56.64)">
  <g transform="translate(0,-30)">
   <rect x="17" y="30.362" width="16" height="16" color="#000000" fill="none"/>
   <rect x="18.5" y="31.862" width="13" height="13" rx="2" ry="2" color="#000000" fill="#ffffff" stroke="#c4c4c4" stroke-linejoin="round"/>
  </g>
 </g>
 <g id="radio-unchecked" transform="translate(-33.996,56.64)">
  <g transform="matrix(.93617 0 0 .93566 -96.783 -244.76)">
   <rect x="206.99" y="261.98" width="17.091" height="17.1" color="#000000" fill="none"/>
   <g transform="matrix(.50892 0 0 .5174 181.79 197.56)">
    <rect x="52.66" y="127.6" width="27.304" height="26.836" rx="13.224" ry="13.246" color="#000000" fill="#ffffff" stroke="#c4c4c4" stroke-linejoin="round" stroke-width="2.0822"/>
   </g>
  </g>
 </g>
 <g id="checkbox-checked-insensitive" transform="translate(-14,75.64)" opacity=".55">
  <g transform="translate(19)">
   <g transform="translate(0,-30)">
    <rect x="17" y="30.362" width="16" height="16" color="#000000" fill="none"/>
    <rect x="18" y="31.362" width="14" height="14" rx="2" ry="2" color="#000000" fill="#3498db" stroke-width="0"/>
   </g>
  </g>
  <g transform="translate(36,-1036)">
   <g transform="rotate(45,7.5,1026.4)">
    <g transform="translate(12.374,11.531)">
     <g transform="translate(-3,-5)">
      <rect x="8" y="1033.4" width="5" height="2" rx=".66666" ry=".66666" fill="url(#linearGradient6615)"/>
      <rect x="11" y="1027.4" width="2" height="8" ry="0" fill="url(#linearGradient6617)"/>
     </g>
     <rect transform="translate(0,1036.4)" x="5" y="-8" width="3" height="1" fill-opacity="0"/>
    </g>
   </g>
  </g>
 </g>
 <g id="checkbox-mixed-insensitive" transform="translate(5,75.64)" opacity=".55">
  <g transform="translate(19)">
   <g transform="translate(0,-30)">
    <rect x="17" y="30.362" width="16" height="16" color="#000000" fill="none"/>
    <rect x="18" y="31.362" width="14" height="14" rx="2" ry="2" color="#000000" fill="#3498db" stroke-width="0"/>
   </g>
  </g>
  <g transform="translate(36,-1036)">
   <g transform="rotate(45,7.5,1026.4)">
    <g transform="translate(12.374,11.531)">
     <g transform="translate(-3,-5)" fill="#3b3c3e">
      <rect transform="rotate(225)" x="-738.8" y="-725.95" width="2" height="8" ry="0" fill="url(#linearGradient6619)"/>
     </g>
     <rect transform="translate(0,1036.4)" x="5" y="-8" width="3" height="1" fill-opacity="0"/>
    </g>
   </g>
  </g>
 </g>
 <g id="radio-checked-insensitive" transform="translate(-33,75.64)" opacity=".55">
  <g transform="translate(19.004)">
   <g transform="matrix(.93617 0 0 .93566 -96.783 -244.76)">
    <rect x="206.99" y="261.98" width="17.091" height="17.1" color="#000000" fill="none"/>
    <g transform="matrix(.50892 0 0 .5174 181.79 197.56)">
     <rect x="51.611" y="126.56" width="29.385" height="28.919" rx="14.692" ry="14.46" color="#000000" fill="#3498db" stroke-width="0"/>
    </g>
   </g>
  </g>
  <rect x="122" y="6.3622" width="4" height="4" rx="1.9989" ry="2" color="#000000" fill="url(#linearGradient6611)"/>
 </g>
 <g id="radio-mixed-insensitive" transform="translate(-33,75.64)" opacity=".55">
  <g transform="translate(19)">
   <g transform="translate(19.004)">
    <g transform="matrix(.93617 0 0 .93566 -96.783 -244.76)">
     <rect x="206.99" y="261.98" width="17.091" height="17.1" color="#000000" fill="none"/>
     <g transform="matrix(.50892 0 0 .5174 181.79 197.56)">
      <rect x="51.611" y="126.56" width="29.385" height="28.919" rx="14.692" ry="14.46" color="#000000" fill="#3498db" stroke-width="0"/>
     </g>
    </g>
   </g>
  </g>
  <rect transform="rotate(-90)" x="-9.3622" y="139" width="2" height="8" ry="0" fill="url(#linearGradient6607)"/>
 </g>
 <g id="checkbox-unchecked-insensitive" transform="translate(-14,75.64)" opacity=".55">
  <g transform="translate(0,-30)">
   <rect x="17" y="30.362" width="16" height="16" color="#000000" fill="none"/>
   <rect x="18.5" y="31.862" width="13" height="13" rx="2" ry="2" color="#000000" fill="#ffffff" stroke="#c4c4c4" stroke-linejoin="round"/>
  </g>
 </g>
 <g id="radio-unchecked-insensitive" transform="translate(-33.996,75.64)" opacity=".55">
  <g transform="matrix(.93617 0 0 .93566 -96.783 -244.76)">
   <rect x="206.99" y="261.98" width="17.091" height="17.1" color="#000000" fill="none"/>
   <g transform="matrix(.50892 0 0 .5174 181.79 197.56)">
    <rect x="52.66" y="127.6" width="27.304" height="26.836" rx="13.224" ry="13.246" color="#000000" fill="#ffffff" stroke="#c4c4c4" stroke-linejoin="round" stroke-width="2.0822"/>
   </g>
  </g>
 </g>
 <g id="switch-active-selected" transform="translate(-1002.4,-186.78)">
  <g transform="translate(885,450)">
   <g transform="translate(120,-117)">
    <g transform="translate(0,-1004.4)">
     <rect y="1029.4" width="52" height="24" opacity="0"/>
     <rect x="1" y="1031.4" width="50" height="20" rx="11" ry="11" fill="url(#linearGradient6597)"/>
     <circle cx="41.003" cy="1041.4" r="7.5" fill="#3498db"/>
    </g>
   </g>
  </g>
 </g>
 <g id="switch-selected" transform="translate(-1002.4,-182.05)">
  <g transform="matrix(-1,0,0,1,1177,420)">
   <g transform="translate(120,-117)">
    <g transform="translate(0,-1004.4)">
     <rect y="1029.4" width="52" height="24" opacity="0"/>
     <rect x="1" y="1031.4" width="50" height="20" rx="11" ry="11" fill="#000000" opacity=".2"/>
     <circle cx="41.086" cy="1041.4" r="7.5" fill="url(#linearGradient6601)"/>
    </g>
   </g>
  </g>
 </g>
 <g id="switch-active-insensitive-selected" transform="translate(-939.62,-186.78)" opacity=".55">
  <g transform="translate(885,450)" opacity="1">
   <g transform="translate(120,-117)">
    <g transform="translate(0,-1004.4)">
     <rect y="1029.4" width="52" height="24" opacity="0"/>
     <rect x="1" y="1031.4" width="50" height="20" rx="11" ry="11" fill="url(#linearGradient6597)"/>
     <circle cx="41.035" cy="1041.4" r="7.5" fill="#3498db"/>
    </g>
   </g>
  </g>
 </g>
 <g id="switch-insensitive-selected" transform="translate(-939.62,-182.05)" opacity=".55">
  <g transform="matrix(-1,0,0,1,1177,420)">
   <g transform="translate(120,-117)">
    <g transform="translate(0,-1004.4)">
     <rect y="1029.4" width="52" height="24" opacity="0"/>
     <rect x="1" y="1031.4" width="50" height="20" rx="11" ry="11" fill="#000000" opacity=".2"/>
     <circle cx="40.875" cy="1041.4" r="7.5" fill="url(#linearGradient6595)"/>
    </g>
   </g>
  </g>
 </g>
 <g id="checkbox-checked-selected" transform="translate(-14 227.53)">
  <g transform="translate(19)">
   <g transform="translate(0,-30)">
    <rect x="17" y="30.362" width="16" height="16" color="#000000" fill="none"/>
    <rect x="18" y="31.362" width="14" height="14" rx="2" ry="2" color="#000000" fill="url(#linearGradient6581)" stroke-width="0"/>
   </g>
  </g>
  <g transform="translate(36,-1036)">
   <g transform="rotate(45,7.5,1026.4)">
    <g transform="translate(12.374,11.531)">
     <g transform="translate(-3,-5)" fill="#3498db">
      <rect x="8" y="1033.4" width="5" height="2" rx=".66666" ry=".66666"/>
      <rect x="11" y="1027.4" width="2" height="8" ry="0"/>
     </g>
     <rect transform="translate(0,1036.4)" x="5" y="-8" width="3" height="1" fill-opacity="0"/>
    </g>
   </g>
  </g>
 </g>
 <g id="checkbox-mixed-selected" transform="translate(5 227.53)">
  <g transform="translate(19)">
   <g transform="translate(0,-30)">
    <rect x="17" y="30.362" width="16" height="16" color="#000000" fill="none"/>
    <rect x="18" y="31.362" width="14" height="14" rx="2" ry="2" color="#000000" fill="url(#linearGradient6581)" stroke-width="0"/>
   </g>
  </g>
  <g transform="translate(36,-1036)">
   <g transform="rotate(45,7.5,1026.4)">
    <g transform="translate(12.374,11.531)">
     <g transform="translate(-3,-5)" fill="#3b3c3e">
      <rect transform="rotate(225)" x="-738.8" y="-725.95" width="2" height="8" ry="0" fill="#3498db"/>
     </g>
     <rect transform="translate(0,1036.4)" x="5" y="-8" width="3" height="1" fill-opacity="0"/>
    </g>
   </g>
  </g>
 </g>
 <g id="radio-checked-selected" transform="translate(-33 227.53)">
  <g transform="translate(19.004)">
   <g transform="matrix(.93617 0 0 .93566 -96.783 -244.76)">
    <rect x="206.99" y="261.98" width="17.091" height="17.1" color="#000000" fill="none"/>
    <g transform="matrix(.50892 0 0 .5174 181.79 197.56)">
     <rect x="51.611" y="126.56" width="29.385" height="28.919" rx="14.692" ry="14.46" color="#000000" fill="url(#linearGradient6577)" stroke-width="0"/>
    </g>
   </g>
  </g>
  <rect x="122" y="6.3622" width="4" height="4" rx="1.9989" ry="2" color="#000000" fill="#3498db"/>
 </g>
 <g id="radio-mixed-selected" transform="translate(-33 227.53)">
  <g transform="translate(19)">
   <g transform="translate(19.004)">
    <g transform="matrix(.93617 0 0 .93566 -96.783 -244.76)">
     <rect x="206.99" y="261.98" width="17.091" height="17.1" color="#000000" fill="none"/>
     <g transform="matrix(.50892 0 0 .5174 181.79 197.56)">
      <rect x="51.611" y="126.56" width="29.385" height="28.919" rx="14.692" ry="14.46" color="#000000" fill="url(#linearGradient6577)" stroke-width="0"/>
     </g>
    </g>
   </g>
  </g>
  <rect transform="rotate(-90)" x="-9.3622" y="139" width="2" height="8" ry="0" fill="#3498db"/>
 </g>
 <g id="checkbox-unchecked-selected" transform="translate(-14 227.53)">
  <g transform="translate(0,-30)">
   <rect x="17" y="30.362" width="16" height="16" color="#000000" fill="none"/>
   <rect x="18.5" y="31.862" width="13" height="13" rx="2" ry="2" color="#000000" fill="#ffffff" fill-opacity=".11765" opacity=".5" stroke="url(#linearGradient6581)" stroke-linejoin="round"/>
  </g>
 </g>
 <g id="radio-unchecked-selected" transform="translate(-33.996 227.53)">
  <g transform="matrix(.93617 0 0 .93566 -96.783 -244.76)">
   <rect x="206.99" y="261.98" width="17.091" height="17.1" color="#000000" fill="none"/>
   <g transform="matrix(.50892 0 0 .5174 181.79 197.56)">
    <rect x="52.66" y="127.6" width="27.304" height="26.836" rx="13.224" ry="13.246" color="#000000" fill="#ffffff" fill-opacity=".11765" opacity=".5" stroke="url(#linearGradient6659)" stroke-linejoin="round" stroke-width="2.0822"/>
   </g>
  </g>
 </g>
 <g id="checkbox-checked-insensitive-selected" transform="translate(-14 246.53)" opacity=".55">
  <g transform="translate(19)">
   <g transform="translate(0,-30)">
    <rect x="17" y="30.362" width="16" height="16" color="#000000" fill="none"/>
    <rect x="18" y="31.362" width="14" height="14" rx="2" ry="2" color="#000000" fill="url(#linearGradient6581)" stroke-width="0"/>
   </g>
  </g>
  <g transform="translate(36,-1036)">
   <g transform="rotate(45,7.5,1026.4)">
    <g transform="translate(12.374,11.531)">
     <g transform="translate(-3,-5)" fill="#3498db">
      <rect x="8" y="1033.4" width="5" height="2" rx=".66666" ry=".66666"/>
      <rect x="11" y="1027.4" width="2" height="8" ry="0"/>
     </g>
     <rect transform="translate(0,1036.4)" x="5" y="-8" width="3" height="1" fill-opacity="0"/>
    </g>
   </g>
  </g>
 </g>
 <g id="checkbox-mixed-insensitive-selected" transform="translate(5 246.53)" opacity=".55">
  <g transform="translate(19)">
   <g transform="translate(0,-30)">
    <rect x="17" y="30.362" width="16" height="16" color="#000000" fill="none"/>
    <rect x="18" y="31.362" width="14" height="14" rx="2" ry="2" color="#000000" fill="url(#linearGradient6581)" stroke-width="0"/>
   </g>
  </g>
  <g transform="translate(36,-1036)">
   <g transform="rotate(45,7.5,1026.4)">
    <g transform="translate(12.374,11.531)">
     <g transform="translate(-3,-5)" fill="#3b3c3e">
      <rect transform="rotate(225)" x="-738.8" y="-725.95" width="2" height="8" ry="0" fill="#3498db"/>
     </g>
     <rect transform="translate(0,1036.4)" x="5" y="-8" width="3" height="1" fill-opacity="0"/>
    </g>
   </g>
  </g>
 </g>
 <g id="radio-checked-insensitive-selected" transform="translate(-33 246.53)" opacity=".55">
  <g transform="translate(19.004)">
   <g transform="matrix(.93617 0 0 .93566 -96.783 -244.76)">
    <rect x="206.99" y="261.98" width="17.091" height="17.1" color="#000000" fill="none"/>
    <g transform="matrix(.50892 0 0 .5174 181.79 197.56)">
     <rect x="51.611" y="126.56" width="29.385" height="28.919" rx="14.692" ry="14.46" color="#000000" fill="url(#linearGradient6577)" stroke-width="0"/>
    </g>
   </g>
  </g>
  <rect x="122" y="6.3622" width="4" height="4" rx="1.9989" ry="2" color="#000000" fill="#3498db"/>
 </g>
 <g id="radio-mixed-insensitive-selected" transform="translate(-33 246.53)" opacity=".55">
  <g transform="translate(19)">
   <g transform="translate(19.004)">
    <g transform="matrix(.93617 0 0 .93566 -96.783 -244.76)">
     <rect x="206.99" y="261.98" width="17.091" height="17.1" color="#000000" fill="none"/>
     <g transform="matrix(.50892 0 0 .5174 181.79 197.56)">
      <rect x="51.611" y="126.56" width="29.385" height="28.919" rx="14.692" ry="14.46" color="#000000" fill="url(#linearGradient6577)" stroke-width="0"/>
     </g>
    </g>
   </g>
  </g>
  <rect transform="rotate(-90)" x="-9.3622" y="139" width="2" height="8" ry="0" fill="#3498db"/>
 </g>
 <g id="checkbox-unchecked-insensitive-selected" transform="translate(-14 246.53)" opacity=".55">
  <g transform="translate(0,-30)">
   <rect x="17" y="30.362" width="16" height="16" color="#000000" fill="none"/>
   <rect x="18.5" y="31.862" width="13" height="13" rx="2" ry="2" color="#000000" fill="#ffffff" fill-opacity=".11765" opacity=".5" stroke="url(#linearGradient6581)" stroke-linejoin="round"/>
  </g>
 </g>
 <g id="radio-unchecked-insensitive-selected" transform="translate(-33.996 246.53)" opacity=".55">
  <g transform="matrix(.93617 0 0 .93566 -96.783 -244.76)">
   <rect x="206.99" y="261.98" width="17.091" height="17.1" color="#000000" fill="none"/>
   <g transform="matrix(.50892 0 0 .5174 181.79 197.56)">
    <rect x="52.66" y="127.6" width="27.304" height="26.836" rx="13.224" ry="13.246" color="#000000" fill="#ffffff" fill-opacity=".11765" opacity=".5" stroke="url(#linearGradient6659)" stroke-linejoin="round" stroke-width="2.0822"/>
   </g>
  </g>
 </g>
 <g id="switch-active-hover" transform="translate(-1002,-386.74)">
  <g transform="translate(885,450)">
   <g transform="translate(120,-117)">
    <g transform="translate(0,-1004.4)">
     <rect y="1029.4" width="52" height="24" opacity="0"/>
     <rect x="1" y="1031.4" width="50" height="20" rx="11" ry="11" fill="#66b1db"/>
     <circle cx="41.125" cy="1041.4" r="7.5" fill="url(#linearGradient6637)"/>
    </g>
   </g>
  </g>
 </g>
 <g id="switch-hover" transform="translate(-1002,-381.74)">
  <g transform="matrix(-1,0,0,1,1177,420)">
   <g transform="translate(120,-117)">
    <g transform="translate(0,-1004.4)">
     <rect y="1029.4" width="52" height="24" opacity="0"/>
     <rect x="1" y="1031.4" width="50" height="20" rx="11" ry="11" fill="#f56b6b"/>
     <circle cx="41.062" cy="1041.4" r="7.5" fill="#ffffff"/>
    </g>
   </g>
  </g>
 </g>
 <g id="switch-active-hover-selected" transform="translate(-939.62,-161.51)">
  <g transform="translate(885,450)">
   <g transform="translate(120,-117)">
    <g transform="translate(0,-1004.4)">
     <rect y="1029.4" width="52" height="24" opacity="0"/>
     <rect x="1" y="1031.4" width="50" height="20" rx="11" ry="11" fill="url(#linearGradient6597)" opacity=".8"/>
     <circle cx="41.003" cy="1041.4" r="7.5" fill="#3498db"/>
    </g>
   </g>
  </g>
 </g>
 <g id="switch-hover-selected" transform="translate(-1002.4,-131.51)">
  <g transform="matrix(-1,0,0,1,1177,420)">
   <g transform="translate(120,-117)">
    <g transform="translate(0,-1004.4)">
     <rect y="1029.4" width="52" height="24" opacity="0"/>
     <rect x="1" y="1031.4" width="50" height="20" rx="11" ry="11" fill="#000000" opacity=".15"/>
     <circle cx="41.086" cy="1041.4" r="7.5" fill="url(#linearGradient6601)"/>
    </g>
   </g>
  </g>
 </g>
 <g id="titlebutton-minimize" transform="translate(-463 332.77)" opacity=".8">
  <g transform="translate(-781,-432.64)" opacity="1">
   <path d="m1373 254v2h6v-2z" color="#000000" fill="#4e545e" opacity="1" style="text-decoration-line:none;text-indent:0;text-transform:none"/>
  </g>
  <rect x="587" y="-185.64" width="16" height="16" fill="none" opacity="1"/>
 </g>
 <g id="checkbox-checked-selectionmode" transform="translate(-462,-83.36)">
  <rect x="462" y="179.36" width="40" height="40" rx="2" ry="2" fill="none" stroke-width="0"/>
  <rect x="466" y="183.36" width="32" height="32" rx="2" ry="2" fill="#3498db" stroke-width="0"/>
  <g transform="translate(-2.2045,1.973)">
   <path d="m491.36 188.95-9.5312 9.5625-4.7812-4.7812-3.1876 3.1875 4.7813 4.7812 3.1875 3.1875 3.1562-3.1875 9.5626-9.5625z" fill="url(#linearGradient6605)"/>
  </g>
 </g>
 <g id="checkbox-selectionmode" transform="translate(-417,-83.36)">
  <rect x="466.5" y="183.86" width="31" height="31" rx="2" ry="2" fill="#ffffff" stroke="#d0d0d0"/>
  <g transform="translate(-2.2045,1.973)">
   <path d="m491.36 188.95-9.5312 9.5625-4.7812-4.7812-3.1876 3.1875 4.7813 4.7812 3.1875 3.1875 3.1562-3.1875 9.5626-9.5625z" fill="#adadad" opacity=".4"/>
  </g>
  <rect x="462" y="179.36" width="40" height="40" rx="2" ry="2" fill="none" stroke-width="0"/>
 </g>
 <g id="switch-active-header" transform="translate(-881,-333)">
  <g transform="translate(885,450)">
   <g transform="translate(120,-117)">
    <g transform="translate(0,-1004.4)">
     <rect y="1029.4" width="52" height="24" opacity="0"/>
     <rect x="1" y="1031.4" width="50" height="20" rx="11" ry="11" fill="#3498db"/>
     <circle cx="41.047" cy="1041.4" r="7.5" fill="url(#linearGradient6565)"/>
    </g>
   </g>
  </g>
 </g>
 <g id="switch-header" transform="translate(-881,-328)">
  <g transform="matrix(-1,0,0,1,1177,420)">
   <g transform="translate(120,-117)">
    <g transform="translate(0,-1004.4)">
     <rect y="1029.4" width="52" height="24" opacity="0"/>
     <rect x="1" y="1031.4" width="50" height="20" rx="11" ry="11" fill="#db5b5b" opacity=".9"/>
     <circle cx="40.938" cy="1041.4" r="7.5" fill="#ffffff"/>
    </g>
   </g>
  </g>
 </g>
 <g id="switch-active-insensitive-header" transform="translate(-818,-333)" opacity=".55">
  <g transform="translate(885,450)" opacity="1">
   <g transform="translate(120,-117)">
    <g transform="translate(0,-1004.4)">
     <rect y="1029.4" width="52" height="24" opacity="0"/>
     <rect x="1" y="1031.4" width="50" height="20" rx="11" ry="11" fill="#3498db"/>
     <circle cx="41.047" cy="1041.4" r="7.5" fill="url(#linearGradient6565)"/>
    </g>
   </g>
  </g>
 </g>
 <g id="switch-insensitive-header" transform="translate(-818,-328)" opacity=".55">
  <g transform="matrix(-1,0,0,1,1177,420)">
   <g transform="translate(120,-117)">
    <g transform="translate(0,-1004.4)">
     <rect y="1029.4" width="52" height="24" opacity="0"/>
     <rect x="1" y="1031.4" width="50" height="20" rx="11" ry="11" fill="#db5b5b"/>
     <circle cx="40.938" cy="1041.4" r="7.5" fill="#ffffff"/>
    </g>
   </g>
  </g>
 </g>
 <g id="titlebutton-close" transform="translate(-481 332.77)">
  <g transform="translate(-678,-432.64)">
   <g transform="translate(-103)">
    <g transform="translate(58)">
     <path transform="translate(1204,190)" d="m172 58a7 7 0 0 0-7 7 7 7 0 0 0 7 7 7 7 0 0 0 7-7 7 7 0 0 0-7-7zm-3 3.9219h0.75c8e-3 -9e-5 0.0156-3.45e-4 0.0234 0 0.19121 0.0084 0.3824 0.09643 0.51562 0.23438l1.711 1.7109 1.7344-1.7109c0.19921-0.17288 0.335-0.22912 0.51562-0.23438h0.75v0.75c0 0.21485-0.0258 0.41299-0.1875 0.5625l-1.7109 1.7109 1.6875 1.6875c0.14114 0.14113 0.21093 0.34009 0.21094 0.53906v0.75h-0.75c-0.19898-8e-6 -0.39794-0.06982-0.53906-0.21094l-1.7109-1.7109-1.7109 1.7109c-0.14112 0.14114-0.34009 0.21094-0.53906 0.21094h-0.75v-0.75c0-0.19897 0.0698-0.39794 0.21094-0.53906l1.7109-1.6875-1.7109-1.7109c-0.15806-0.14597-0.22737-0.35194-0.21094-0.5625z" fill="#f46067"/>
    </g>
   </g>
   <g transform="translate(1323,246.87)" fill="#ffffff"></g>
  </g>
  <rect x="645" y="-185.64" width="16" height="16" fill="none"/>
 </g>
 <g id="titlebutton-maximize" transform="translate(-472 332.77)" opacity=".8">
  <g transform="translate(-781,-432.64)" opacity="1">
   <path d="m1403.8 252h3.3818c0.4503 0 0.8162 0.36847 0.8187 0.8188v3.3817zm2.4074 6.0069h-3.395c-0.4504 0-0.8188-0.36842-0.8188-0.81875v-3.3951l4.2138 4.2138" fill="#4e545e" fill-rule="evenodd" opacity="1"/>
  </g>
  <rect x="616" y="-185.64" width="16" height="16" fill="none" opacity="1"/>
 </g>
 <g id="titlebutton-maximize-backdrop" transform="translate(-472 332.77)" opacity=".45">
  <g transform="translate(-781,-415.64)" opacity="1">
   <path d="m1403.8 252h3.3818c0.4503 0 0.8162 0.36847 0.8187 0.8188v3.3817zm2.4074 6.0069h-3.395c-0.4504 0-0.8188-0.36842-0.8188-0.81875v-3.3951l4.2138 4.2138" fill="#4e545e" fill-rule="evenodd" opacity="1"/>
  </g>
  <rect x="616" y="-168.64" width="16" height="16" fill="none" opacity="1"/>
 </g>
 <g id="titlebutton-minimize-backdrop" transform="translate(-463 332.77)" opacity=".45">
  <g transform="translate(-781,-415.64)" opacity="1">
   <path d="m1373 254v2h6v-2z" color="#000000" fill="#4e545e" opacity="1" style="text-decoration-line:none;text-indent:0;text-transform:none"/>
  </g>
  <rect x="587" y="-168.64" width="16" height="16" fill="none" opacity="1"/>
 </g>
 <rect transform="scale(1,-1)" x="242" y="-138" width="121" height="138" rx="0" ry="0" color="#000000" fill="#1b1d24"/>
 <g id="checkbox-checked-dark" transform="translate(228,56.64)">
  <g transform="translate(19)">
   <g transform="translate(0,-30)">
    <rect x="17" y="30.362" width="16" height="16" color="#000000" fill="none"/>
    <rect x="18" y="31.362" width="14" height="14" rx="2" ry="2" color="#000000" fill="#3498db" stroke-width="0"/>
   </g>
  </g>
  <g transform="translate(36,-1036)">
   <g transform="rotate(45,7.5,1026.4)">
    <g transform="translate(12.374,11.531)">
     <g transform="translate(-3,-5)" fill="#1b2224">
      <rect x="8" y="1033.4" width="5" height="2" rx=".66666" ry=".66666"/>
      <rect x="11" y="1027.4" width="2" height="8" ry="0"/>
     </g>
     <rect transform="translate(0,1036.4)" x="5" y="-8" width="3" height="1" fill-opacity="0"/>
    </g>
   </g>
  </g>
 </g>
 <g id="checkbox-mixed-dark" transform="translate(247,56.64)">
  <g transform="translate(19)">
   <g transform="translate(0,-30)">
    <rect x="17" y="30.362" width="16" height="16" color="#000000" fill="none"/>
    <rect x="18" y="31.362" width="14" height="14" rx="2" ry="2" color="#000000" fill="#3498db" stroke-width="0"/>
   </g>
  </g>
  <g transform="translate(36,-1036)">
   <g transform="rotate(45,7.5,1026.4)">
    <g transform="translate(12.374,11.531)">
     <g transform="translate(-3,-5)" fill="#3b3c3e">
      <rect transform="rotate(225)" x="-738.8" y="-725.95" width="2" height="8" ry="0" fill="#1b2224"/>
     </g>
     <rect transform="translate(0,1036.4)" x="5" y="-8" width="3" height="1" fill-opacity="0"/>
    </g>
   </g>
  </g>
 </g>
 <g id="radio-checked-dark" transform="translate(209,56.64)">
  <g transform="translate(19.004)">
   <g transform="matrix(.93617 0 0 .93566 -96.783 -244.76)">
    <rect x="206.99" y="261.98" width="17.091" height="17.1" color="#000000" fill="none"/>
    <g transform="matrix(.50892 0 0 .5174 181.79 197.56)">
     <rect x="51.611" y="126.56" width="29.385" height="28.919" rx="14.692" ry="14.46" color="#000000" fill="#3498db" stroke-width="0"/>
    </g>
   </g>
  </g>
  <rect x="122" y="6.3622" width="4" height="4" rx="1.9989" ry="2" color="#000000" fill="#1b2224"/>
 </g>
 <g id="radio-mixed-dark" transform="translate(209,56.64)">
  <g transform="translate(19)">
   <g transform="translate(19.004)">
    <g transform="matrix(.93617 0 0 .93566 -96.783 -244.76)">
     <rect x="206.99" y="261.98" width="17.091" height="17.1" color="#000000" fill="none"/>
     <g transform="matrix(.50892 0 0 .5174 181.79 197.56)">
      <rect x="51.611" y="126.56" width="29.385" height="28.919" rx="14.692" ry="14.46" color="#000000" fill="#3498db" stroke-width="0"/>
     </g>
    </g>
   </g>
  </g>
  <rect transform="rotate(-90)" x="-9.3622" y="139" width="2" height="8" ry="0" fill="#1b2224"/>
 </g>
 <g id="switch-active-dark" transform="translate(-760,-333)">
  <g transform="translate(885,450)">
   <g transform="translate(120,-117)">
    <g transform="translate(0,-1004.4)">
     <rect y="1029.4" width="52" height="24" opacity="0"/>
     <rect x="1" y="1031.4" width="50" height="20" rx="11" ry="11" fill="#3498db"/>
     <circle cx="40.561" cy="1041.4" r="7.5" fill="#1b1d24"/>
    </g>
   </g>
  </g>
 </g>
 <g id="switch-dark" transform="translate(-760,-328)">
  <g transform="matrix(-1,0,0,1,1177,420)">
   <g transform="translate(120,-117)">
    <g transform="translate(0,-1004.4)">
     <rect y="1029.4" width="52" height="24" opacity="0"/>
     <rect x="1" y="1031.4" width="50" height="20" rx="11" ry="11" fill="#db5b5b"/>
     <circle cx="40.875" cy="1041.4" r="7.5" fill="#1b1d24"/>
    </g>
   </g>
  </g>
 </g>
 <g id="switch-active-insensitive-dark" transform="translate(-697,-333)" opacity=".55">
  <g transform="translate(885,450)" opacity="1">
   <g transform="translate(120,-117)">
    <g transform="translate(0,-1004.4)">
     <rect y="1029.4" width="52" height="24" opacity="0"/>
     <rect x="1" y="1031.4" width="50" height="20" rx="11" ry="11" fill="#3498db"/>
     <circle cx="40.561" cy="1041.4" r="7.5" fill="#1b1d24"/>
    </g>
   </g>
  </g>
 </g>
 <g id="switch-insensitive-dark" transform="translate(-697,-328)" opacity=".55">
  <g transform="matrix(-1,0,0,1,1177,420)">
   <g transform="translate(120,-117)">
    <g transform="translate(0,-1004.4)">
     <rect y="1029.4" width="52" height="24" opacity="0"/>
     <rect x="1" y="1031.4" width="50" height="20" rx="11" ry="11" fill="#db5b5b"/>
     <circle cx="40.875" cy="1041.4" r="7.5" fill="#1b1d24"/>
    </g>
   </g>
  </g>
 </g>
 <g id="checkbox-unchecked-dark" transform="translate(228,56.64)">
  <g transform="translate(0,-30)">
   <rect x="17" y="30.362" width="16" height="16" color="#000000" fill="none"/>
   <rect x="18.5" y="31.862" width="13" height="13" rx="2" ry="2" color="#000000" fill="#2b3035" stroke="#19191b" stroke-linejoin="round"/>
  </g>
 </g>
 <g id="radio-unchecked-dark" transform="translate(208,56.64)">
  <g transform="matrix(.93617 0 0 .93566 -96.783 -244.76)">
   <rect x="206.99" y="261.98" width="17.091" height="17.1" color="#000000" fill="none"/>
   <g transform="matrix(.50892 0 0 .5174 181.79 197.56)">
    <rect x="52.66" y="127.6" width="27.304" height="26.836" rx="13.224" ry="13.246" color="#000000" fill="#2b3035" stroke="#19191b" stroke-linejoin="round" stroke-width="2.0822"/>
   </g>
  </g>
 </g>
 <g id="checkbox-checked-insensitive-dark" transform="translate(228,75.64)" opacity=".55">
  <g transform="translate(19)">
   <g transform="translate(0,-30)">
    <rect x="17" y="30.362" width="16" height="16" color="#000000" fill="none"/>
    <rect x="18" y="31.362" width="14" height="14" rx="2" ry="2" color="#000000" fill="#3498db" stroke-width="0"/>
   </g>
  </g>
  <g transform="translate(36,-1036)">
   <g transform="rotate(45,7.5,1026.4)">
    <g transform="translate(12.374,11.531)">
     <g transform="translate(-3,-5)" fill="#1b2224">
      <rect x="8" y="1033.4" width="5" height="2" rx=".66666" ry=".66666"/>
      <rect x="11" y="1027.4" width="2" height="8" ry="0"/>
     </g>
     <rect transform="translate(0,1036.4)" x="5" y="-8" width="3" height="1" fill-opacity="0"/>
    </g>
   </g>
  </g>
 </g>
 <g id="checkbox-mixed-insensitive-dark" transform="translate(247,75.64)" opacity=".55">
  <g transform="translate(19)">
   <g transform="translate(0,-30)">
    <rect x="17" y="30.362" width="16" height="16" color="#000000" fill="none"/>
    <rect x="18" y="31.362" width="14" height="14" rx="2" ry="2" color="#000000" fill="#3498db" stroke-width="0"/>
   </g>
  </g>
  <g transform="translate(36,-1036)">
   <g transform="rotate(45,7.5,1026.4)">
    <g transform="translate(12.374,11.531)">
     <g transform="translate(-3,-5)" fill="#3b3c3e">
      <rect transform="rotate(225)" x="-738.8" y="-725.95" width="2" height="8" ry="0" fill="#1b2224"/>
     </g>
     <rect transform="translate(0,1036.4)" x="5" y="-8" width="3" height="1" fill-opacity="0"/>
    </g>
   </g>
  </g>
 </g>
 <g id="radio-checked-insensitive-dark" transform="translate(209,75.64)" opacity=".55">
  <g transform="translate(19.004)">
   <g transform="matrix(.93617 0 0 .93566 -96.783 -244.76)">
    <rect x="206.99" y="261.98" width="17.091" height="17.1" color="#000000" fill="none"/>
    <g transform="matrix(.50892 0 0 .5174 181.79 197.56)">
     <rect x="51.611" y="126.56" width="29.385" height="28.919" rx="14.692" ry="14.46" color="#000000" fill="#3498db" stroke-width="0"/>
    </g>
   </g>
  </g>
  <rect x="122" y="6.3622" width="4" height="4" rx="1.9989" ry="2" color="#000000" fill="#1b2224"/>
 </g>
 <g id="radio-mixed-insensitive-dark" transform="translate(209,75.64)" opacity=".55">
  <g transform="translate(19)">
   <g transform="translate(19.004)">
    <g transform="matrix(.93617 0 0 .93566 -96.783 -244.76)">
     <rect x="206.99" y="261.98" width="17.091" height="17.1" color="#000000" fill="none"/>
     <g transform="matrix(.50892 0 0 .5174 181.79 197.56)">
      <rect x="51.611" y="126.56" width="29.385" height="28.919" rx="14.692" ry="14.46" color="#000000" fill="#3498db" stroke-width="0"/>
     </g>
    </g>
   </g>
  </g>
  <rect transform="rotate(-90)" x="-9.3622" y="139" width="2" height="8" ry="0" fill="#1b2224"/>
 </g>
 <g id="checkbox-unchecked-insensitive-dark" transform="translate(228,75.64)" opacity=".6">
  <g transform="translate(0,-30)">
   <rect x="17" y="30.362" width="16" height="16" color="#000000" fill="none"/>
   <rect x="18.5" y="31.862" width="13" height="13" rx="2" ry="2" color="#000000" fill="#2b3035" stroke="#19191b" stroke-linejoin="round"/>
  </g>
 </g>
 <g id="radio-unchecked-insensitive-dark" transform="translate(208,75.64)" opacity=".6">
  <g transform="matrix(.93617 0 0 .93566 -96.783 -244.76)">
   <rect x="206.99" y="261.98" width="17.091" height="17.1" color="#000000" fill="none"/>
   <g transform="matrix(.50892 0 0 .5174 181.79 197.56)">
    <rect x="52.66" y="127.6" width="27.304" height="26.836" rx="13.224" ry="13.246" color="#000000" fill="#2b3035" stroke="#19191b" stroke-linejoin="round" stroke-width="2.0822"/>
   </g>
  </g>
 </g>
 <g id="checkbox-checked-selectionmode-dark" transform="translate(-220,-83.36)">
  <rect x="466" y="183.36" width="32" height="32" rx="2" ry="2" fill="#3498db" stroke-width="0"/>
  <g transform="translate(-2.2045,1.973)">
   <path d="m491.36 188.95-9.5312 9.5625-4.7812-4.7812-3.1876 3.1875 4.7813 4.7812 3.1875 3.1875 3.1562-3.1875 9.5626-9.5625z" fill="#1b2224"/>
  </g>
  <rect x="462" y="179.36" width="40" height="40" rx="2" ry="2" fill="none" stroke-width="0"/>
 </g>
 <g id="checkbox-selectionmode-dark" transform="translate(-175,-83.36)">
  <rect x="466.5" y="183.86" width="31" height="31" rx="2" ry="2" fill="#2b3035" stroke="#696e75"/>
  <g transform="translate(-2.2045,1.973)">
   <path d="m491.36 188.95-9.5312 9.5625-4.7812-4.7812-3.1876 3.1875 4.7813 4.7812 3.1875 3.1875 3.1562-3.1875 9.5626-9.5625z" fill="#5f687d" opacity=".55"/>
  </g>
  <rect x="462" y="179.36" width="40" height="40" rx="2" ry="2" fill="none" stroke-width="0"/>
 </g>
 <rect x="363" y="-1.4648e-5" width="121" height="138" fill="#1b1d24" stroke-width="0"/>
 <g id="switch-active-header-dark" transform="translate(-639,-333)">
  <g transform="translate(885,450)">
   <g transform="translate(120,-117)">
    <g transform="translate(0,-1004.4)">
     <rect y="1029.4" width="52" height="24" opacity="0"/>
     <rect x="1" y="1031.4" width="50" height="20" rx="11" ry="11" fill="#3498db"/>
     <circle cx="40.561" cy="1041.4" r="7.5" fill="#1b1d24"/>
    </g>
   </g>
  </g>
 </g>
 <g id="switch-header-dark" transform="translate(-639,-328)">
  <g transform="matrix(-1,0,0,1,1177,420)">
   <g transform="translate(120,-117)">
    <g transform="translate(0,-1004.4)">
     <rect y="1029.4" width="52" height="24" opacity="0"/>
     <rect x="1" y="1031.4" width="50" height="20" rx="11" ry="11" fill="#db5b5b"/>
     <circle cx="40.875" cy="1041.4" r="7.5" fill="#1b1d24"/>
    </g>
   </g>
  </g>
 </g>
 <g id="switch-active-insensitive-header-dark" transform="translate(-576,-333)" opacity=".55">
  <g transform="translate(885,450)" opacity="1">
   <g transform="translate(120,-117)">
    <g transform="translate(0,-1004.4)">
     <rect y="1029.4" width="52" height="24" opacity="0"/>
     <rect x="1" y="1031.4" width="50" height="20" rx="11" ry="11" fill="#3498db"/>
     <circle cx="40.561" cy="1041.4" r="7.5" fill="#1b1d24"/>
    </g>
   </g>
  </g>
 </g>
 <g id="switch-insensitive-header-dark" transform="translate(-576,-328)" opacity=".55">
  <g transform="matrix(-1,0,0,1,1177,420)">
   <g transform="translate(120,-117)">
    <g transform="translate(0,-1004.4)">
     <rect y="1029.4" width="52" height="24" opacity="0"/>
     <rect x="1" y="1031.4" width="50" height="20" rx="11" ry="11" fill="#db5b5b"/>
     <circle cx="40.875" cy="1041.4" r="7.5" fill="#1b1d24" opacity="1"/>
    </g>
   </g>
  </g>
 </g>
 <g id="titlebutton-minimize-dark" transform="translate(-221,242.64)" opacity=".7">
  <g transform="translate(-781,-432.64)" opacity="1">
   <path d="m1373 254v2h6v-2z" color="#000000" fill="#828b98" opacity="1" style="text-decoration-line:none;text-indent:0;text-transform:none"/>
  </g>
  <rect x="587" y="-185.64" width="16" height="16" fill="none" opacity="1"/>
 </g>
 <g id="titlebutton-close-dark" transform="translate(-239,242.64)">
  <g transform="translate(-678,-432.64)">
   <g transform="translate(-103)">
    <g transform="translate(58)">
     <path transform="translate(962,190)" d="m414 58a7 7 0 0 0-7 7 7 7 0 0 0 7 7 7 7 0 0 0 7-7 7 7 0 0 0-7-7zm-3 3.9219h0.75c8e-3 -9e-5 0.0156-3.45e-4 0.0234 0 0.19121 0.0084 0.3824 0.09643 0.51562 0.23438l1.711 1.7109 1.7344-1.7109c0.19921-0.17288 0.335-0.22912 0.51562-0.23438h0.75v0.75c0 0.21485-0.0258 0.41299-0.1875 0.5625l-1.7109 1.7109 1.6875 1.6875c0.14114 0.14113 0.21093 0.34009 0.21094 0.53906v0.75h-0.75c-0.19898-8e-6 -0.39794-0.06982-0.53906-0.21094l-1.7109-1.7109-1.7109 1.7109c-0.14112 0.14114-0.34009 0.21094-0.53906 0.21094h-0.75v-0.75c0-0.19897 0.0698-0.39794 0.21094-0.53906l1.7109-1.6875-1.7109-1.7109c-0.15806-0.14597-0.22737-0.35194-0.21094-0.5625z" fill="#cc575d"/>
    </g>
   </g>
   <g transform="translate(1323,246.87)" fill="#ffffff"></g>
  </g>
  <rect x="645" y="-185.64" width="16" height="16" fill="none"/>
 </g>
 <g id="titlebutton-maximize-dark" transform="translate(-230,242.64)" opacity=".7">
  <g transform="translate(-781,-432.64)" opacity="1">
   <path d="m1403.8 252h3.3818c0.4503 0 0.8162 0.36847 0.8187 0.8188v3.3817zm2.4074 6.0069h-3.395c-0.4504 0-0.8188-0.36842-0.8188-0.81875v-3.3951l4.2138 4.2138" fill="#828b98" fill-rule="evenodd" opacity="1"/>
  </g>
  <rect x="616" y="-185.64" width="16" height="16" fill="none" opacity="1"/>
 </g>
 <g id="titlebutton-maximize-backdrop-dark" transform="translate(-230,242.64)" opacity=".4">
  <g transform="translate(-781,-415.64)" opacity="1">
   <path d="m1403.8 252h3.3818c0.4503 0 0.8162 0.36847 0.8187 0.8188v3.3817zm2.4074 6.0069h-3.395c-0.4504 0-0.8188-0.36842-0.8188-0.81875v-3.3951l4.2138 4.2138" fill="#828b98" fill-rule="evenodd" opacity="1"/>
  </g>
  <rect x="616" y="-168.64" width="16" height="16" fill="none" opacity="1"/>
 </g>
 <g id="titlebutton-minimize-backdrop-dark" transform="translate(-221,242.64)" opacity=".4">
  <g transform="translate(-781,-415.64)" opacity="1">
   <path d="m1373 254v2h6v-2z" color="#000000" fill="#828b98" opacity="1" style="text-decoration-line:none;text-indent:0;text-transform:none"/>
  </g>
  <rect x="587" y="-168.64" width="16" height="16" fill="none" opacity="1"/>
 </g>
 <g id="titlebutton-close-backdrop" transform="translate(-481 349.77)" opacity=".45">
  <g transform="translate(-678,-432.64)" opacity="1">
   <g transform="translate(-103)" opacity="1">
    <g transform="translate(58)">
     <path transform="translate(1204,173)" d="m172 75a7 7 0 0 0-7 7 7 7 0 0 0 7 7 7 7 0 0 0 7-7 7 7 0 0 0-7-7zm-3 3.9219h0.75c8e-3 -9e-5 0.0156-3.5e-4 0.0234 0 0.19122 8e-3 0.38239 0.09641 0.51562 0.23438l1.711 1.7109 1.7344-1.7109c0.0996-0.08644 0.18419-0.14336 0.26562-0.17969 0.0814-0.03633 0.15969-0.05206 0.25-0.05469h0.75v0.75c0 0.21485-0.0257 0.41298-0.1875 0.5625l-1.7109 1.7109 1.6875 1.6875c0.14114 0.14113 0.21094 0.34009 0.21094 0.53907v0.75h-0.75c-0.19898-8e-6 -0.39794-0.06982-0.53906-0.21094l-1.7109-1.7109-1.7109 1.7109c-0.14113 0.14114-0.34009 0.21094-0.53906 0.21094h-0.75v-0.75c0-0.19897 0.0698-0.39793 0.21094-0.53906l1.7109-1.6875-1.7109-1.7109c-0.15805-0.14598-0.22737-0.35194-0.21094-0.5625z" fill="#4e545e" opacity="1"/>
    </g>
   </g>
   <g transform="translate(1323,246.87)" fill="#ffffff"></g>
  </g>
  <rect x="645" y="-185.64" width="16" height="16" fill="none" opacity="1"/>
 </g>
 <g id="titlebutton-close-backdrop-dark" transform="translate(-239,259.64)" opacity=".4">
  <g transform="translate(-678,-432.64)" opacity="1">
   <g transform="translate(-103)" opacity="1">
    <g transform="translate(58)">
     <path transform="translate(962,190)" d="m414 58a7 7 0 0 0-7 7 7 7 0 0 0 7 7 7 7 0 0 0 7-7 7 7 0 0 0-7-7zm-3 3.9219h0.75c8e-3 -9e-5 0.0156-3.45e-4 0.0234 0 0.19121 0.0084 0.3824 0.09643 0.51562 0.23438l1.711 1.7109 1.7344-1.7109c0.19921-0.17288 0.335-0.22912 0.51562-0.23438h0.75v0.75c0 0.21485-0.0258 0.41299-0.1875 0.5625l-1.7109 1.7109 1.6875 1.6875c0.14114 0.14113 0.21093 0.34009 0.21094 0.53906v0.75h-0.75c-0.19898-8e-6 -0.39794-0.06982-0.53906-0.21094l-1.7109-1.7109-1.7109 1.7109c-0.14112 0.14114-0.34009 0.21094-0.53906 0.21094h-0.75v-0.75c0-0.19897 0.0698-0.39794 0.21094-0.53906l1.7109-1.6875-1.7109-1.7109c-0.15806-0.14597-0.22737-0.35194-0.21094-0.5625z" fill="#828b98"/>
    </g>
   </g>
   <g transform="translate(1323,246.87)" fill="#ffffff"></g>
  </g>
  <rect x="645" y="-185.64" width="16" height="16" fill="none" opacity="1"/>
 </g>
 <g id="titlebutton-restore" transform="translate(8 375.77)">
  <g transform="translate(.5)" fill="#4e545e" fill-rule="evenodd">
   <path d="m188.21-220.64h-3.395c-0.4504 0-0.8188-0.36842-0.8188-0.81875v-3.3951l4.2138 4.2138" opacity=".8"/>
   <path d="m179.79-220.64h3.395c0.4504 0 0.8188 0.36842 0.8188 0.81875v3.3951l-4.2138-4.2138" opacity=".8"/>
  </g>
  <rect x="176.5" y="-228.64" width="16" height="16" fill="none" opacity=".8"/>
 </g>
 <g id="titlebutton-restore-backdrop" transform="translate(8,391.99)" opacity=".45">
  <g transform="translate(.5)" fill="#4e545e" fill-rule="evenodd">
   <path d="m188.21-220.64h-3.395c-0.4504 0-0.8188-0.36842-0.8188-0.81875v-3.3951l4.2138 4.2138" opacity=".8"/>
   <path d="m179.79-220.64h3.395c0.4504 0 0.8188 0.36842 0.8188 0.81875v3.3951l-4.2138-4.2138" opacity=".8"/>
  </g>
  <rect x="176.5" y="-228.64" width="16" height="16" fill="none" opacity=".8"/>
 </g>
 <g id="titlebutton-restore-dark" transform="translate(251.06,285.64)" opacity=".7">
  <g transform="translate(.5)" fill="#828b98" fill-rule="evenodd">
   <path d="m188.21-220.64h-3.395c-0.4504 0-0.8188-0.36842-0.8188-0.81875v-3.3951l4.2138 4.2138" opacity="1"/>
   <path d="m179.79-220.64h3.395c0.4504 0 0.8188 0.36842 0.8188 0.81875v3.3951l-4.2138-4.2138" opacity="1"/>
  </g>
  <rect x="176.5" y="-228.64" width="16" height="16" fill="none" opacity=".8"/>
 </g>
 <g id="titlebutton-restore-backdrop-dark" transform="translate(251.06 301.85)" opacity=".4">
  <g transform="translate(.5)" fill="#828b98" fill-rule="evenodd">
   <path d="m188.21-220.64h-3.395c-0.4504 0-0.8188-0.36842-0.8188-0.81875v-3.3951l4.2138 4.2138" opacity="1"/>
   <path d="m179.79-220.64h3.395c0.4504 0 0.8188 0.36842 0.8188 0.81875v3.3951l-4.2138-4.2138" opacity="1"/>
  </g>
  <rect x="176.5" y="-228.64" width="16" height="16" fill="none" opacity=".8"/>
 </g>
 <g id="switch-active-hover-header" transform="translate(-881,-386.74)">
  <g transform="translate(885,450)">
   <g transform="translate(120,-117)">
    <g transform="translate(0,-1004.4)">
     <rect y="1029.4" width="52" height="24" opacity="0"/>
     <rect x="1" y="1031.4" width="50" height="20" rx="11" ry="11" fill="#66b1db"/>
     <circle cx="41.047" cy="1041.4" r="7.5" fill="url(#linearGradient6565)"/>
    </g>
   </g>
  </g>
 </g>
 <g id="switch-hover-header" transform="translate(-881,-381.74)">
  <g transform="matrix(-1,0,0,1,1177,420)">
   <g transform="translate(120,-117)">
    <g transform="translate(0,-1004.4)">
     <rect y="1029.4" width="52" height="24" opacity="0"/>
     <rect x="1" y="1031.4" width="50" height="20" rx="11" ry="11" fill="#f56b6b" opacity=".9"/>
     <circle cx="40.938" cy="1041.4" r="7.5" fill="#ffffff"/>
    </g>
   </g>
  </g>
 </g>
 <g id="switch-active-hover-dark" transform="translate(-760,-386.74)">
  <g transform="translate(885,450)">
   <g transform="translate(120,-117)">
    <g transform="translate(0,-1004.4)">
     <rect y="1029.4" width="52" height="24" opacity="0"/>
     <rect x="1" y="1031.4" width="50" height="20" rx="11" ry="11" fill="#66b1db"/>
     <circle cx="40.561" cy="1041.4" r="7.5" fill="#1b1d24"/>
    </g>
   </g>
  </g>
 </g>
 <g id="switch-hover-dark" transform="translate(-760,-381.74)">
  <g transform="matrix(-1,0,0,1,1177,420)">
   <g transform="translate(120,-117)">
    <g transform="translate(0,-1004.4)">
     <rect y="1029.4" width="52" height="24" opacity="0"/>
     <rect x="1" y="1031.4" width="50" height="20" rx="11" ry="11" fill="#f56b6b"/>
     <circle cx="40.875" cy="1041.4" r="7.5" fill="#1b1d24"/>
    </g>
   </g>
  </g>
 </g>
 <g id="switch-active-hover-header-dark" transform="translate(-639,-386.74)">
  <g transform="translate(885,450)">
   <g transform="translate(120,-117)">
    <g transform="translate(0,-1004.4)">
     <rect y="1029.4" width="52" height="24" opacity="0"/>
     <rect x="1" y="1031.4" width="50" height="20" rx="11" ry="11" fill="#66b1db"/>
     <circle cx="40.561" cy="1041.4" r="7.5" fill="#1b1d24"/>
    </g>
   </g>
  </g>
 </g>
 <g id="switch-hover-header-dark" transform="translate(-639,-381.74)">
  <g transform="matrix(-1,0,0,1,1177,420)">
   <g transform="translate(120,-117)">
    <g transform="translate(0,-1004.4)">
     <rect y="1029.4" width="52" height="24" opacity="0"/>
     <rect x="1" y="1031.4" width="50" height="20" rx="11" ry="11" fill="#f56b6b"/>
     <circle cx="40.875" cy="1041.4" r="7.5" fill="#1b1d24"/>
    </g>
   </g>
  </g>
 </g>
 <g id="titlebutton-close-hover" transform="matrix(1.375,0,0,1.375,-564.25,440.25)">
  <g transform="translate(-781,-432.64)">
   <g transform="translate(-103)">
    <g transform="translate(58)">
     <path transform="matrix(.72727 0 0 .72727 1238.5 113.91)" d="m189 184c-5.5228 3e-5 -10 4.4772-10 10s4.4772 10 10 10c5.5228-3e-5 10-4.4772 10-10s-4.4772-10-10-10zm-3.9961 6h1c0.0138-1.2e-4 0.0197-4.7e-4 0.0293 0 0.25479 0.011 0.50985 0.12844 0.6875 0.3125l2.2812 2.2812 2.3106-2.2812c0.26536-0.23049 0.44659-0.3055 0.68749-0.3125h1v1c0 0.28647-0.0345 0.55067-0.25 0.75l-2.2793 2.2812 2.248 2.25c0.1881 0.18816 0.28125 0.45346 0.28125 0.71875v1h-1c-0.26524-1e-5 -0.53051-0.0931-0.71875-0.28125l-2.2793-2.2812-2.2812 2.2812c-0.18796 0.18818-0.45351 0.28125-0.71875 0.28125h-0.99804v-1c0-0.26528 0.0921-0.5306 0.28125-0.71875l2.2793-2.25-2.2793-2.2812c-0.21065-0.19462-0.30312-0.46925-0.28125-0.75z" fill="#f46067"/>
    </g>
   </g>
   <g transform="translate(1323,246.87)" fill="#ffffff"></g>
  </g>
  <rect x="542" y="-185.64" width="16" height="16" fill="none"/>
 </g>
 <g id="titlebutton-maximize-hover" transform="matrix(1.375,0,0,1.375,-551.38,440.25)">
  <g transform="translate(-781,-432.64)">
   <path d="m1302 247.73c-4.0166 0-7.2727 3.2561-7.2727 7.2727s3.2561 7.2727 7.2727 7.2727 7.2727-3.2561 7.2727-7.2727-3.2561-7.2727-7.2727-7.2727z" fill="#4d565f" opacity=".25"/>
   <g transform="translate(1294,247)" fill="#c0e3ff">
    <g transform="translate(-81,-967)" fill="#c0e3ff">
     <path d="m87.841 972.09h3.2755c0.43615 0 0.79058 0.3569 0.79303 0.79308v3.2754zm2.3318 5.8182h-3.2884c-0.4362 0-0.79303-0.35684-0.79303-0.79302v-3.2884l4.0814 4.0814" fill="#4b5161" fill-rule="evenodd"/>
    </g>
   </g>
  </g>
  <rect x="513" y="-185.64" width="16" height="16" fill="none"/>
 </g>
 <g id="titlebutton-minimize-hover" transform="matrix(1.375,0,0,1.375,-538.5,440.25)">
  <g transform="translate(-781,-432.64)">
   <path d="m1273 247.73c-4.0166 0-7.2727 3.2561-7.2727 7.2727s3.2561 7.2727 7.2727 7.2727 7.2727-3.2561 7.2727-7.2727-3.2561-7.2727-7.2727-7.2727z" fill="#4d565f" opacity=".25"/>
   <g transform="translate(1265,247)" fill="#c0e3ff">
    <g transform="translate(-81,-967)" fill="#c0e3ff">
     <path d="m86.091 974.27v1.4545h5.8182v-1.4545z" color="#000000" fill="#4b5161" style="text-decoration-line:none;text-indent:0;text-transform:none"/>
    </g>
   </g>
  </g>
  <rect x="484" y="-185.64" width="16" height="16" fill="none"/>
 </g>
 <g id="titlebutton-restore-hover" transform="matrix(1.0083 0 0 1.0083 9.5875 380.88)">
  <path d="m207.68-193.27c-5.4772 0-9.9174 4.4401-9.9174 9.9174s4.4401 9.9174 9.9174 9.9174 9.9174-4.4402 9.9174-9.9174-4.4402-9.9174-9.9174-9.9174z" fill="#4d565f" opacity=".25"/>
  <g transform="translate(-.3182 .28346)" fill="#4b5161" fill-rule="evenodd">
   <path d="m213.95-183.64h-4.7942c-0.63594 0-1.1562-0.52026-1.1562-1.1562v-4.7942l5.9504 5.9504"/>
   <path d="m202.05-183.64h4.7942c0.63593 0 1.1562 0.52026 1.1562 1.1562v4.7942l-5.9504-5.9504"/>
  </g>
  <rect x="196.77" y="-194.26" width="21.818" height="21.818" fill="none"/>
 </g>
 <g id="titlebutton-close-active" transform="matrix(1.375,0,0,1.375,-564.25,465.25)">
  <g transform="translate(-781,-432.64)">
   <g transform="translate(-103)">
    <g transform="translate(58)">
     <path transform="matrix(.72727 0 0 .72727 1238.5 113.91)" d="m189 184c-5.5228 3e-5 -10 4.4772-10 10s4.4772 10 10 10c5.5228-3e-5 10-4.4772 10-10s-4.4772-10-10-10zm-3.9961 6h1c0.0138-1.2e-4 0.0197-4.7e-4 0.0293 0 0.25479 0.011 0.50985 0.12844 0.6875 0.3125l2.2812 2.2812 2.3106-2.2812c0.26536-0.23049 0.44659-0.3055 0.68749-0.3125h1v1c0 0.28647-0.0345 0.55067-0.25 0.75l-2.2793 2.2812 2.248 2.25c0.1881 0.18816 0.28125 0.45346 0.28125 0.71875v1h-1c-0.26524-1e-5 -0.53051-0.0931-0.71875-0.28125l-2.2793-2.2812-2.2812 2.2812c-0.18796 0.18818-0.45351 0.28125-0.71875 0.28125h-0.99804v-1c0-0.26528 0.0921-0.5306 0.28125-0.71875l2.2793-2.25-2.2793-2.2812c-0.21065-0.19462-0.30312-0.46925-0.28125-0.75z" fill="#da4d54"/>
    </g>
   </g>
   <g transform="translate(1323,246.87)" fill="#ffffff"></g>
  </g>
  <rect x="542" y="-185.64" width="16" height="16" fill="none"/>
 </g>
 <g id="titlebutton-maximize-active" transform="matrix(1.375,0,0,1.375,-551.38,465.25)">
  <g transform="translate(-781,-432.64)">
   <path transform="matrix(.72727 0 0 .72727 1184.2 95.727)" d="m162 209c-5.5228 0-10 4.4772-10 10s4.4772 10 10 10 10-4.4772 10-10-4.4772-10-10-10zm-1.5938 6h4.5039c0.5997 0 1.0865 0.4901 1.0898 1.0898v4.5039zm-2.4062 2.3887 5.6113 5.6113h-4.5215c-0.59976 0-1.0898-0.4901-1.0898-1.0898z" fill="#3498db"/>
  </g>
  <rect x="513" y="-185.64" width="16" height="16" fill="none"/>
 </g>
 <g id="titlebutton-minimize-active" transform="matrix(1.375,0,0,1.375,-538.5,465.25)">
  <g transform="translate(-781,-432.64)">
   <path transform="matrix(.72727 0 0 .72727 1174.8 95.727)" d="m135 209c-5.5228 0-10 4.4772-10 10s4.4772 10 10 10 10-4.4772 10-10-4.4772-10-10-10zm-4 9h8v2h-8z" fill="#3498db"/>
  </g>
  <rect x="484" y="-185.64" width="16" height="16" fill="none"/>
 </g>
 <g id="titlebutton-restore-active" transform="matrix(1.0083,0,0,1.0083,9.5875,405.88)">
  <path transform="matrix(.99174 0 0 .99174 -6.5331 -400.54)" d="m216 209c-5.5228 0-10 4.4772-10 10s4.4772 10 10 10 10-4.4772 10-10-4.4772-10-10-10zm0 4 6 6h-4.834c-0.64124 0-1.166-0.52481-1.166-1.166zm-6 6h4.834c0.64123 0 1.166 0.52482 1.166 1.166v4.834z" fill="#3498db"/>
  <rect x="196.77" y="-194.26" width="21.818" height="21.818" fill="none"/>
 </g>
 <g id="titlebutton-close-hover-dark" transform="matrix(1.375 0 0 1.375 -323.25 346.25)">
  <g transform="translate(-781,-432.64)">
   <g transform="translate(-103)">
    <g transform="translate(58)">
     <path transform="matrix(.72727 0 0 .72727 1238.5 113.91)" d="m189 184c-5.5228 3e-5 -10 4.4772-10 10s4.4772 10 10 10c5.5228-3e-5 10-4.4772 10-10s-4.4772-10-10-10zm-3.9961 6h1c0.0138-1.2e-4 0.0197-4.7e-4 0.0293 0 0.25479 0.011 0.50985 0.12844 0.6875 0.3125l2.2812 2.2812 2.3106-2.2812c0.26536-0.23049 0.44659-0.3055 0.68749-0.3125h1v1c0 0.28647-0.0345 0.55067-0.25 0.75l-2.2793 2.2812 2.248 2.25c0.1881 0.18816 0.28125 0.45346 0.28125 0.71875v1h-1c-0.26524-1e-5 -0.53051-0.0931-0.71875-0.28125l-2.2793-2.2812-2.2812 2.2812c-0.18796 0.18818-0.45351 0.28125-0.71875 0.28125h-0.99804v-1c0-0.26528 0.0921-0.5306 0.28125-0.71875l2.2793-2.25-2.2793-2.2812c-0.21065-0.19462-0.30312-0.46925-0.28125-0.75z" fill="#f46067"/>
    </g>
   </g>
   <g transform="translate(1323,246.87)" fill="#ffffff"></g>
  </g>
  <rect x="542" y="-185.64" width="16" height="16" fill="none"/>
 </g>
 <g id="titlebutton-maximize-hover-dark" transform="matrix(1.375 0 0 1.375 -310.38 346.25)">
  <g transform="translate(-781,-432.64)">
   <path d="m1302 247.73c-4.0166 0-7.2727 3.2561-7.2727 7.2727s3.2561 7.2727 7.2727 7.2727 7.2727-3.2561 7.2727-7.2727-3.2561-7.2727-7.2727-7.2727z" fill="#717e8a" opacity=".45"/>
   <g transform="translate(1294,247)" fill="#c0e3ff">
    <g transform="translate(-81,-967)" fill="#c0e3ff">
     <path d="m87.841 972.09h3.2755c0.43615 0 0.79058 0.3569 0.79303 0.79308v3.2754zm2.3318 5.8182h-3.2884c-0.4362 0-0.79303-0.35684-0.79303-0.79302v-3.2884l4.0814 4.0814" fill="#a9afbd" fill-rule="evenodd"/>
    </g>
   </g>
  </g>
  <rect x="513" y="-185.64" width="16" height="16" fill="none"/>
 </g>
 <g id="titlebutton-minimize-hover-dark" transform="matrix(1.375 0 0 1.375 -297.5 346.25)">
  <g transform="translate(-781,-432.64)">
   <path d="m1273 247.73c-4.0166 0-7.2727 3.2561-7.2727 7.2727s3.2561 7.2727 7.2727 7.2727 7.2727-3.2561 7.2727-7.2727-3.2561-7.2727-7.2727-7.2727z" fill="#717e8a" opacity=".45"/>
   <g transform="translate(1265,247)" fill="#c0e3ff">
    <g transform="translate(-81,-967)" fill="#c0e3ff">
     <path d="m86.091 974.27v1.4545h5.8182v-1.4545z" color="#000000" fill="#a9afbd" style="text-decoration-line:none;text-indent:0;text-transform:none"/>
    </g>
   </g>
  </g>
  <rect x="484" y="-185.64" width="16" height="16" fill="none"/>
 </g>
 <g id="titlebutton-restore-hover-dark" transform="matrix(1.0083 0 0 1.0083 250.59 286.88)">
  <path d="m207.68-193.27c-5.4772 0-9.9174 4.4401-9.9174 9.9174s4.4401 9.9174 9.9174 9.9174 9.9174-4.4402 9.9174-9.9174-4.4402-9.9174-9.9174-9.9174z" fill="#717e8a" opacity=".45"/>
  <g transform="translate(-.3182 .28346)" fill="#a9afbd" fill-rule="evenodd">
   <path d="m213.95-183.64h-4.7942c-0.63594 0-1.1562-0.52026-1.1562-1.1562v-4.7942l5.9504 5.9504"/>
   <path d="m202.05-183.64h4.7942c0.63593 0 1.1562 0.52026 1.1562 1.1562v4.7942l-5.9504-5.9504"/>
  </g>
  <rect x="196.77" y="-194.26" width="21.818" height="21.818" fill="none"/>
 </g>
 <g id="titlebutton-close-active-dark" transform="matrix(1.375 0 0 1.375 -323.25 371.25)">
  <g transform="translate(-781,-432.64)">
   <g transform="translate(-103)">
    <g transform="translate(58)">
     <path transform="matrix(.72727 0 0 .72727 1238.5 113.91)" d="m189 184c-5.5228 3e-5 -10 4.4772-10 10s4.4772 10 10 10c5.5228-3e-5 10-4.4772 10-10s-4.4772-10-10-10zm-3.9961 6h1c0.0138-1.2e-4 0.0197-4.7e-4 0.0293 0 0.25479 0.011 0.50985 0.12844 0.6875 0.3125l2.2812 2.2812 2.3106-2.2812c0.26536-0.23049 0.44659-0.3055 0.68749-0.3125h1v1c0 0.28647-0.0345 0.55067-0.25 0.75l-2.2793 2.2812 2.248 2.25c0.1881 0.18816 0.28125 0.45346 0.28125 0.71875v1h-1c-0.26524-1e-5 -0.53051-0.0931-0.71875-0.28125l-2.2793-2.2812-2.2812 2.2812c-0.18796 0.18818-0.45351 0.28125-0.71875 0.28125h-0.99804v-1c0-0.26528 0.0921-0.5306 0.28125-0.71875l2.2793-2.25-2.2793-2.2812c-0.21065-0.19462-0.30312-0.46925-0.28125-0.75z" fill="#da4d54"/>
    </g>
   </g>
   <g transform="translate(1323,246.87)" fill="#ffffff"></g>
  </g>
  <rect x="542" y="-185.64" width="16" height="16" fill="none"/>
 </g>
 <g id="titlebutton-maximize-active-dark" transform="matrix(1.375 0 0 1.375 -310.38 371.25)">
  <g transform="translate(-781,-432.64)">
   <path transform="matrix(.72727 0 0 .72727 1184.2 95.727)" d="m162 209c-5.5228 0-10 4.4772-10 10s4.4772 10 10 10 10-4.4772 10-10-4.4772-10-10-10zm-1.5938 6h4.5039c0.5997 0 1.0865 0.4901 1.0898 1.0898v4.5039zm-2.4062 2.3887 5.6113 5.6113h-4.5215c-0.59976 0-1.0898-0.4901-1.0898-1.0898z" fill="#3498db"/>
  </g>
  <rect x="513" y="-185.64" width="16" height="16" fill="none"/>
 </g>
 <g id="titlebutton-minimize-active-dark" transform="matrix(1.375 0 0 1.375 -297.5 371.25)">
  <g transform="translate(-781,-432.64)">
   <path transform="matrix(.72727 0 0 .72727 1174.8 95.727)" d="m135 209c-5.5228 0-10 4.4772-10 10s4.4772 10 10 10 10-4.4772 10-10-4.4772-10-10-10zm-4 9h8v2h-8z" fill="#3498db"/>
  </g>
  <rect x="484" y="-185.64" width="16" height="16" fill="none"/>
 </g>
 <g id="titlebutton-restore-active-dark" transform="matrix(1.0083 0 0 1.0083 250.59 311.88)">
  <path transform="matrix(.99174 0 0 .99174 -6.5331 -400.54)" d="m216 209c-5.5228 0-10 4.4772-10 10s4.4772 10 10 10 10-4.4772 10-10-4.4772-10-10-10zm0 4 6 6h-4.834c-0.64124 0-1.166-0.52481-1.166-1.166zm-6 6h4.834c0.64123 0 1.166 0.52482 1.166 1.166v4.834z" fill="#3498db"/>
  <rect x="196.77" y="-194.26" width="21.818" height="21.818" fill="none"/>
 </g>
</svg>
