<svg xmlns="http://www.w3.org/2000/svg" width="26" height="26" enable-background="new 0 0 16 16" version="1.0" viewBox="0 0 18.909 18.909"><defs><filter id="a" width="1.096" height="1.096" x="-.048" y="-.048" color-interpolation-filters="sRGB"><feGaussianBlur stdDeviation=".32"/></filter></defs><circle cx="9.454" cy="10.182" r="8" filter="url(#a)" opacity=".1"/><circle cx="9.454" cy="9.454" r="8" fill="#f75a61"/><path fill="#fff" d="M44.226 764.17h1.031c.255.011.51.129.688.313l2.28 2.28 2.313-2.28c.266-.231.447-.306.688-.313h1v1c0 .286-.034.55-.25.75l-2.281 2.281 2.25 2.25c.188.188.281.454.281.719v1h-1c-.265 0-.53-.093-.719-.281l-2.28-2.282-2.282 2.282a1.01 1.01 0 0 1-.719.28h-1v-1c0-.264.093-.53.281-.718l2.282-2.25-2.282-2.281a.91.91 0 0 1-.28-.75z" color="#bebebe" enable-background="new" style="block-progression:tb;text-decoration-line:none;text-indent:0;text-transform:none" transform="translate(-25.614 -549.187)scale(.72727)"/></svg>